<svg xmlns="http://www.w3.org/2000/svg" version="1.1" xmlnsXlink="http://www.w3.org/1999/xlink" xmlnsSvgjs="http://svgjs.dev/svgjs" width="1000" height="1000" viewBox="0 0 1000 1000"><rect width="1000" height="1000" fill="#ffffff"></rect><g transform="matrix(0.7,0,0,0.7,149.57575757575756,282.1265587044535)"><svg viewBox="0 0 396 247" data-background-color="#ffffff" preserveAspectRatio="xMidYMid meet" height="623" width="1000" xmlns="http://www.w3.org/2000/svg" xmlns:xlink="http://www.w3.org/1999/xlink"><g id="tight-bounds" transform="matrix(1,0,0,1,0.2400000000000091,-0.09999999999999432)"><svg viewBox="0 0 395.52 247.2" height="247.2" width="395.52"><rect width="395.5199890136719" height="247.1999969482422" fill="url(#51755174-7b85-4e6f-990b-2f14e74aab96)" mask="url(&quot;#3838f562-4d28-4f67-bec2-79210c4b6791&quot;)" data-fill-palette-color="tertiary"></rect><g><svg></svg></g><g><svg viewBox="0 0 395.52 247.2" height="247.2" width="395.52"><g transform="matrix(1,0,0,1,75.54432,63.88577348997927)"><svg viewBox="0 0 244.43135999999998 119.42845302004145" height="119.42845302004145" width="244.43135999999998"><g><svg viewBox="0 0 244.43135999999998 119.42845302004145" height="119.42845302004145" width="244.43135999999998"><g><svg viewBox="0 0 244.43135999999998 119.42845302004145" height="119.42845302004145" width="244.43135999999998"><g><svg viewBox="0 0 244.43135999999998 119.42845302004145" height="119.42845302004145" width="244.43135999999998"><g id="textblocktransform"><svg viewBox="0 0 244.43135999999998 119.42845302004145" height="119.42845302004145" width="244.43135999999998" id="textblock"><g><svg viewBox="0 0 244.43135999999998 119.42845302004145" height="119.42845302004145" width="244.43135999999998"><g transform="matrix(1,0,0,1,0,0)"><svg width="244.43135999999998" viewBox="1.7000000476837158 -29.450000762939453 72.35000610351562 35.35000228881836" height="119.42845302004145" data-palette-color="#ab7b60"><path d="M10.85-24.7L10.85-24.7Q12.8-27.15 17.75-28.05L17.75-28.05Q19.9-28.4 22.15-28.4 24.4-28.4 26.8-28L26.8-28Q28.1-29.45 29.45-29.45L29.45-29.45Q29.8-29.45 29.93-29.28 30.05-29.1 29.9-28.9 29.75-28.7 29.23-28.53 28.7-28.35 28-27.75L28-27.75Q29.7-27.25 30.35-26.93 31-26.6 31.33-26.1 31.65-25.6 31.65-25.4L31.65-25.4Q31.65-24.95 30.28-25.4 28.9-25.85 27.05-26.1L27.05-26.1Q26.15-23.95 25.15-20.2 24.15-16.45 23.95-15.7L23.95-15.7Q26.65-16.35 27.58-16.35 28.5-16.35 28.7-16.23 28.9-16.1 28.93-15.9 28.95-15.7 28.85-15.58 28.75-15.45 28.53-15.55 28.3-15.65 27.7-15.65 27.1-15.65 25.45-15.23 23.8-14.8 23.5-13.95L23.5-13.95Q18.9-1.3 11.8 3.65L11.8 3.65Q8.65 5.9 6.05 5.9L6.05 5.9Q5.1 5.9 4.25 5.6L4.25 5.6Q1.7 4.75 1.7 1.83 1.7-1.1 4.75-4.6L4.75-4.6Q10.9-11.65 21.35-14.95L21.35-14.95Q21.5-15.4 22.3-17.9L22.3-17.9Q24.05-23.6 25.55-26.2L25.55-26.2Q24.95-26.2 23.75-26.2 22.55-26.2 20.35-25.95L20.35-25.95Q14.7-25.3 12.3-23.1L12.3-23.1Q11.05-21.9 11.05-20.35L11.05-20.35Q11.05-19.6 11.48-19 11.9-18.4 12.3-18.15L12.3-18.15Q12.95-17.7 14.05-17.15L14.05-17.15Q14.65-16.7 14.3-16.6L14.3-16.6Q14.15-16.6 13.95-16.65L13.95-16.65Q12.75-16.9 11.4-18.1 10.05-19.3 10-20.85L10-20.85Q9.85-21.4 9.85-21.75L9.85-21.75Q9.85-23.4 10.85-24.7ZM4.3 1.45L4.3 1.45Q4.3 2 4.4 2.55L4.4 2.55Q4.9 4.45 6.9 4.45L6.9 4.45Q9.85 4.45 13.1 0.5L13.1 0.5Q17.9-5.35 21.05-14L21.05-14Q12.3-11.15 7.2-4.75L7.2-4.75Q4.3-1.2 4.3 1.45ZM32.75-15.45L32.75-15.45 32.65-16.25Q32.65-19.75 35.7-22.5L35.7-22.5Q41.15-27.35 53.3-28.5L53.3-28.5Q55.15-28.65 57.62-28.65 60.1-28.65 63.9-27.93 67.7-27.2 70.15-25.25L70.15-25.25Q74.05-22.05 74.05-16.88 74.05-11.7 70.97-7.33 67.9-2.95 63.15-0.55 58.4 1.85 53 1.85 47.6 1.85 44.25-0.7L44.25-0.7Q44.2-0.65 43.77 0.15 43.35 0.95 42.9 1.7L42.9 1.7Q40.6 5.35 38.8 2.7L38.8 2.7Q37.75 1.15 37.75-1 37.75-3.15 38.2-6.2L38.2-6.2Q38.25-6.5 37.8-7.6L37.8-7.6Q37.65-8.1 38.15-8.6L38.15-8.6Q38.55-8.9 39.27-9.1 40-9.3 40.27-9.1 40.55-8.9 40.15-8.03 39.75-7.15 39.75-6.4 39.75-5.65 41.3-4.17 42.85-2.7 43.2-2.6L43.2-2.6Q44.4-5.55 48.3-13.65L48.3-13.65Q48.75-14.55 48.75-15 48.75-15.45 48.65-15.7L48.65-15.7Q48.9-17.15 51.82-20.3 54.75-23.45 56.55-23.45L56.55-23.45Q57.25-23.45 58.3-22.98 59.35-22.5 59.5-21.65L59.5-21.65Q59.5-21.35 59.45-21.33 59.4-21.3 59.2-21.4 59-21.5 58.9-21.5L58.9-21.5Q57.3-21.5 55.12-19.18 52.95-16.85 50.8-13.1L50.8-13.1Q47-6.6 44.7-1.6L44.7-1.6Q47.8 0.65 51.45 0.65L51.45 0.65Q56.2 0.65 60.55-1.8 64.9-4.25 67.55-7.45L67.55-7.45Q71.85-12.7 71.85-17.8L71.85-17.8Q71.85-21.55 68.87-24.5 65.9-27.45 59.45-27.65L59.45-27.65Q59.15-27.65 58.85-27.65L58.85-27.65Q53.75-27.65 48.1-25.98 42.45-24.3 38.45-21.2 34.45-18.1 34.45-14.75L34.45-14.75Q34.45-13.9 34.97-13.25 35.5-12.6 36.07-12.35 36.65-12.1 37.52-11.8 38.4-11.5 38.67-11.38 38.95-11.25 39-11.1L39-11.1Q39.1-10.7 38.3-10.7L38.3-10.7Q36.45-10.85 34.57-12.08 32.7-13.3 32.7-14.95L32.7-14.95Q32.7-15.2 32.75-15.45ZM39.5-4.5L39.5-4.5Q39.5 2.25 40.45 2.25L40.45 2.25Q41.15 2.25 42.45-1.25L42.45-1.25Q42.55-1.4 42.55-1.45L42.55-1.45Q42.2-1.75 41.07-2.93 39.95-4.1 39.5-4.5Z" opacity="1" transform="matrix(1,0,0,1,0,0)" fill="#ab7b60" class="undefined-text-0" data-fill-palette-color="primary" id="text-0"></path></svg></g></svg></g></svg></g></svg></g></svg></g></svg></g></svg></g><g><path d="M245.816 0c68.262 0 123.6 55.338 123.6 123.6 0 68.262-55.338 123.6-123.6 123.6-40.594 0-76.617-19.569-99.15-49.789h6.804c21.663 27.068 54.98 44.404 92.346 44.404 65.288 0 118.215-52.927 118.215-118.215 0-65.288-52.927-118.215-118.215-118.215-37.366 0-70.682 17.336-92.346 44.404l-6.804 0c22.533-30.219 58.556-49.789 99.15-49.789z" fill="url(#51755174-7b85-4e6f-990b-2f14e74aab96)" stroke="transparent" data-fill-palette-color="tertiary"></path></g></svg></g><defs></defs><mask id="3838f562-4d28-4f67-bec2-79210c4b6791"><g id="SvgjsG2135"><svg viewBox="0 0 395.52 247.2" height="247.2" width="395.52"><g><svg></svg></g><g><svg viewBox="0 0 395.52 247.2" height="247.2" width="395.52"><g transform="matrix(1,0,0,1,75.54432,63.88577348997927)"><svg viewBox="0 0 244.43135999999998 119.42845302004145" height="119.42845302004145" width="244.43135999999998"><g><svg viewBox="0 0 244.43135999999998 119.42845302004145" height="119.42845302004145" width="244.43135999999998"><g><svg viewBox="0 0 244.43135999999998 119.42845302004145" height="119.42845302004145" width="244.43135999999998"><g><svg viewBox="0 0 244.43135999999998 119.42845302004145" height="119.42845302004145" width="244.43135999999998"><g id="SvgjsG2134"><svg viewBox="0 0 244.43135999999998 119.42845302004145" height="119.42845302004145" width="244.43135999999998" id="SvgjsSvg2133"><g><svg viewBox="0 0 244.43135999999998 119.42845302004145" height="119.42845302004145" width="244.43135999999998"><g transform="matrix(1,0,0,1,0,0)"><svg width="244.43135999999998" viewBox="1.7000000476837158 -29.450000762939453 72.35000610351562 35.35000228881836" height="119.42845302004145" data-palette-color="#ab7b60"></svg></g></svg></g></svg></g></svg></g></svg></g></svg></g></svg></g><g><path d="M245.816 0c68.262 0 123.6 55.338 123.6 123.6 0 68.262-55.338 123.6-123.6 123.6-40.594 0-76.617-19.569-99.15-49.789h6.804c21.663 27.068 54.98 44.404 92.346 44.404 65.288 0 118.215-52.927 118.215-118.215 0-65.288-52.927-118.215-118.215-118.215-37.366 0-70.682 17.336-92.346 44.404l-6.804 0c22.533-30.219 58.556-49.789 99.15-49.789z" fill="white" stroke="transparent"></path></g></svg></g><defs><mask></mask></defs></svg></g></mask><linearGradient x1="0.054" x2="0.941" y1="0.5" y2="0.5" id="51755174-7b85-4e6f-990b-2f14e74aab96"><stop stop-color="#864d25" offset="0"></stop><stop stop-color="#f1c4b3" offset="0.498"></stop><stop stop-color="#864d25" offset="1"></stop></linearGradient></svg><rect width="395.52" height="247.2" fill="none" stroke="none" visibility="hidden"></rect></g></svg></g></svg>